<svg id="visual" viewBox="0 0 900 600" width="900" height="600" xmlns="http://www.w3.org/2000/svg" xmlns:xlink="http://www.w3.org/1999/xlink" version="1.1"><rect x="0" y="0" width="900" height="600" fill="#ffffff"></rect><defs><linearGradient id="grad1_0" x1="33.3%" y1="0%" x2="100%" y2="100%"><stop offset="20%" stop-color="#bbabff" stop-opacity="1"></stop><stop offset="80%" stop-color="#bbabff" stop-opacity="1"></stop></linearGradient></defs><defs><linearGradient id="grad1_1" x1="33.3%" y1="0%" x2="100%" y2="100%"><stop offset="20%" stop-color="#bbabff" stop-opacity="1"></stop><stop offset="80%" stop-color="#d3c6ff" stop-opacity="1"></stop></linearGradient></defs><defs><linearGradient id="grad1_2" x1="33.3%" y1="0%" x2="100%" y2="100%"><stop offset="20%" stop-color="#eae2ff" stop-opacity="1"></stop><stop offset="80%" stop-color="#d3c6ff" stop-opacity="1"></stop></linearGradient></defs><defs><linearGradient id="grad1_3" x1="33.3%" y1="0%" x2="100%" y2="100%"><stop offset="20%" stop-color="#eae2ff" stop-opacity="1"></stop><stop offset="80%" stop-color="#ffffff" stop-opacity="1"></stop></linearGradient></defs><defs><linearGradient id="grad2_0" x1="0%" y1="0%" x2="66.7%" y2="100%"><stop offset="20%" stop-color="#bbabff" stop-opacity="1"></stop><stop offset="80%" stop-color="#bbabff" stop-opacity="1"></stop></linearGradient></defs><defs><linearGradient id="grad2_1" x1="0%" y1="0%" x2="66.7%" y2="100%"><stop offset="20%" stop-color="#d3c6ff" stop-opacity="1"></stop><stop offset="80%" stop-color="#bbabff" stop-opacity="1"></stop></linearGradient></defs><defs><linearGradient id="grad2_2" x1="0%" y1="0%" x2="66.7%" y2="100%"><stop offset="20%" stop-color="#d3c6ff" stop-opacity="1"></stop><stop offset="80%" stop-color="#eae2ff" stop-opacity="1"></stop></linearGradient></defs><defs><linearGradient id="grad2_3" x1="0%" y1="0%" x2="66.7%" y2="100%"><stop offset="20%" stop-color="#ffffff" stop-opacity="1"></stop><stop offset="80%" stop-color="#eae2ff" stop-opacity="1"></stop></linearGradient></defs><g transform="translate(900, 0)"><path d="M0 378.6C-42 360.1 -84.1 341.6 -135.9 328C-187.6 314.4 -249.1 305.6 -267.7 267.7C-286.3 229.8 -262.1 162.7 -273.5 113.3C-284.8 63.8 -331.7 31.9 -378.6 0L0 0Z" fill="#f4f1ff"></path><path d="M0 283.9C-31.5 270.1 -63.1 256.2 -101.9 246C-140.7 235.8 -186.8 229.2 -200.8 200.8C-214.7 172.3 -196.6 122.1 -205.1 85C-213.6 47.9 -248.8 23.9 -283.9 0L0 0Z" fill="#ded4ff"></path><path d="M0 189.3C-21 180 -42 170.8 -67.9 164C-93.8 157.2 -124.5 152.8 -133.8 133.8C-143.2 114.9 -131.1 81.4 -136.7 56.6C-142.4 31.9 -165.8 16 -189.3 0L0 0Z" fill="#c7b9ff"></path><path d="M0 94.6C-10.5 90 -21 85.4 -34 82C-46.9 78.6 -62.3 76.4 -66.9 66.9C-71.6 57.4 -65.5 40.7 -68.4 28.3C-71.2 16 -82.9 8 -94.6 0L0 0Z" fill="#bbabff"></path></g><g transform="translate(0, 600)"><path d="M0 -378.6C49.1 -373.8 98.1 -368.9 144.9 -349.8C191.6 -330.6 236.1 -297 254.6 -254.6C273 -212.1 265.4 -160.6 281.8 -116.7C298.1 -72.8 338.4 -36.4 378.6 0L0 0Z" fill="#f4f1ff"></path><path d="M0 -283.9C36.8 -280.3 73.6 -276.7 108.7 -262.3C143.7 -247.9 177.1 -222.8 190.9 -190.9C204.8 -159.1 199.1 -120.5 211.3 -87.5C223.6 -54.6 253.8 -27.3 283.9 0L0 0Z" fill="#ded4ff"></path><path d="M0 -189.3C24.5 -186.9 49.1 -184.5 72.4 -174.9C95.8 -165.3 118.1 -148.5 127.3 -127.3C136.5 -106 132.7 -80.3 140.9 -58.4C149.1 -36.4 169.2 -18.2 189.3 0L0 0Z" fill="#c7b9ff"></path><path d="M0 -94.6C12.3 -93.4 24.5 -92.2 36.2 -87.4C47.9 -82.6 59 -74.3 63.6 -63.6C68.3 -53 66.4 -40.2 70.4 -29.2C74.5 -18.2 84.6 -9.1 94.6 0L0 0Z" fill="#bbabff"></path></g></svg>